<svg xmlns="http://www.w3.org/2000/svg" xmlns:xlink="http://www.w3.org/1999/xlink" viewBox="0 0 121.167 121.167" fill="#fff" fill-rule="evenodd" stroke="#000" stroke-linecap="round" stroke-linejoin="round"><use xlink:href="#A" x="2.083" y="2.083"/><symbol id="A" overflow="visible"><use xlink:href="#C" fill="#92d3f5" stroke="none" fill-rule="nonzero"/><g fill="none" stroke-width="4.167"><use xlink:href="#C"/><path d="M58.334 0v116.667c-17.833 0-32.292-26.117-32.292-58.333S40.5 0 58.334 0s32.292 26.117 32.292 58.333-14.458 58.333-32.292 58.333"/><path d="M116.667 58.334H0m108.333-29.167h-100m100 58.333h-100"/></g></symbol><defs ><path id="C" d="M0 58.333A58.21 58.21 0 0 1 58.333 0a58.21 58.21 0 0 1 58.333 58.333 58.21 58.21 0 0 1-58.333 58.333A58.21 58.21 0 0 1 0 58.333z"/></defs></svg>