<svg xmlns="http://www.w3.org/2000/svg" xmlns:xlink="http://www.w3.org/1999/xlink" viewBox="0 0 86 81" fill="#fff" fill-rule="evenodd" stroke="#000" stroke-linecap="round" stroke-linejoin="round"><use xlink:href="#A" x=".5" y=".5"/><symbol id="A" overflow="visible"><path d="M41.97 45.226l4.739 4.561 5.308-5.131c-.379-2.47.569-5.131 2.464-7.031s4.739-2.85 7.203-2.47L85 12.542 71.92 0 48.794 22.613c.189 2.47-.569 5.131-2.464 7.031s-4.739 2.66-7.203 2.47l-5.497 5.13 4.739 4.561-22.937 22.233-.948-.76-4.36 3.42L2.731 78.1 4.627 80l11.753-7.221 3.602-4.37-.758-.76L41.97 45.226zm13.269-2.09c-.189.76-.189 1.52-.189 2.28l.189.95-.758.57-5.308 5.131-1.896 1.9-4.739-4.561-2.464 2.47 25.97 25.273c1.706 1.71 3.791 2.47 6.066 2.47s4.36-.76 6.066-2.47c3.412-3.23 3.412-8.551 0-11.781L55.239 43.135zm-31.467-6.841h0l7.772 7.601 2.464-2.47-3.223-3.23-1.516-1.33 8.151-7.791.948.19h.758c.569 0 .948 0 1.516-.19l-4.739-4.561-.379-.19c1.706-5.891.19-12.541-4.549-17.102S19.412 1.14 13.346 2.66l10.236 9.881-2.654 9.881-10.047 2.47L.646 14.822c-1.706 5.891 0 12.352 4.739 17.102 4.929 4.941 12.132 6.271 18.387 4.371z" fill="#fff" stroke="none"/></symbol></svg>