<svg xmlns="http://www.w3.org/2000/svg" xmlns:xlink="http://www.w3.org/1999/xlink" viewBox="0 0 151 101" fill="#fff" fill-rule="evenodd" stroke="#000" stroke-linecap="round" stroke-linejoin="round"><use xlink:href="#A" x=".5" y=".5"/><symbol id="A" overflow="visible"><g stroke="none"><path d="M0 0h150v100H0z" fill="#b22234"/><path d="M76 23.077h74v7.692H76zm0-15.385h74v7.692H76zm0 30.77h74v7.692H76zM0 53.846h150v7.692H0zm0 15.385h150v7.692H0zm0 15.384h150v7.692H0z"/><path d="M0 0h76v53.846H0z" fill="#3c3b6e"/><path d="M7.024 4.434H9.26L7.451 5.748l.691 2.126L6.333 6.56 4.525 7.874l.691-2.126-1.809-1.314h2.236l.691-2.126z"/><use xlink:href="#C"/><use xlink:href="#C" y="10.769"/><use xlink:href="#C" y="21.538"/><use xlink:href="#C" y="32.308"/><use xlink:href="#D"/><use xlink:href="#D" y="10.769"/><use xlink:href="#D" y="21.539"/><path d="M13.784 43.44l1.809-1.314h-2.235L12.666 40l-.691 2.126H9.74l1.809 1.314-.691 2.126 1.809-1.314 1.809 1.314zm6.334-37.692l1.809-1.314h-2.236L19 2.308l-.691 2.126h-2.236l1.809 1.314-.691 2.126L19 6.56l1.809 1.314zm0 10.769l1.809-1.314h-2.236L19 13.077l-.691 2.126h-2.236l1.809 1.314-.691 2.126L19 17.329l1.809 1.314zm0 10.769l1.809-1.314h-2.236L19 23.846l-.691 2.126h-2.236l1.809 1.314-.691 2.126L19 28.098l1.809 1.314zm0 10.769l1.809-1.314h-2.236L19 34.615l-.691 2.126h-2.236l1.809 1.314-.691 2.126L19 38.867l1.809 1.314zm0 10.77l1.809-1.314h-2.236L19 45.385l-.691 2.126h-2.236l1.809 1.314-.691 2.126L19 49.637l1.809 1.314z"/><use xlink:href="#E"/><use xlink:href="#E" y="10.769"/><path d="M26.451 32.671l1.809-1.314h-2.235l-.691-2.126-.691 2.126h-2.236l1.809 1.314-.691 2.126 1.809-1.314 1.809 1.314zm0 10.769l1.809-1.314h-2.235L25.333 40l-.691 2.126h-2.236l1.809 1.314-.691 2.126 1.809-1.314 1.809 1.314z"/><use xlink:href="#F"/><use xlink:href="#F" y="10.769"/><use xlink:href="#F" y="21.538"/><use xlink:href="#F" y="32.307"/><use xlink:href="#F" y="43.077"/><path d="M39.118 11.132l1.809-1.314h-2.236L38 7.692l-.691 2.126h-2.236l1.809 1.314-.691 2.126L38 11.944l1.809 1.314zm0 10.769l1.809-1.314h-2.236L38 18.461l-.691 2.126h-2.236l1.809 1.314-.691 2.126L38 22.713l1.809 1.314zm0 10.77l1.809-1.314h-2.236L38 29.231l-.691 2.126h-2.236l1.809 1.314-.691 2.126L38 33.483l1.809 1.314zm0 10.769l1.809-1.314h-2.236L38 40l-.691 2.126h-2.236l1.809 1.314-.691 2.126L38 44.252l1.809 1.314z"/><use xlink:href="#E" x="19" y="-5.384"/><use xlink:href="#E" x="19" y="5.385"/><use xlink:href="#E" x="19" y="16.154"/><use xlink:href="#E" x="19" y="26.923"/><use xlink:href="#E" x="19" y="37.693"/><use xlink:href="#G"/><use xlink:href="#G" y="10.769"/><use xlink:href="#G" y="21.539"/><path d="M51.784 43.44l1.809-1.314h-2.236L50.666 40l-.691 2.126H47.74l1.809 1.314-.691 2.126 1.809-1.314 1.809 1.314zm6.334-37.692l1.809-1.314h-2.236L57 2.308l-.691 2.126h-2.236l1.809 1.314-.691 2.126L57 6.56l1.809 1.314zm0 10.769l1.809-1.314h-2.236L57 13.077l-.691 2.126h-2.236l1.809 1.314-.691 2.126L57 17.329l1.809 1.314zm0 10.769l1.809-1.314h-2.236L57 23.846l-.691 2.126h-2.236l1.809 1.314-.691 2.126L57 28.098l1.809 1.314zm0 10.769l1.809-1.314h-2.236L57 34.615l-.691 2.126h-2.236l1.809 1.314-.691 2.126L57 38.867l1.809 1.314zm0 10.77l1.809-1.314h-2.236L57 45.385l-.691 2.126h-2.236l1.809 1.314-.691 2.126L57 49.637l1.809 1.314z"/><use xlink:href="#E" x="38"/><use xlink:href="#E" x="38" y="10.769"/><use xlink:href="#E" x="38" y="21.539"/><path d="M64.451 43.44l1.809-1.314h-2.236L63.333 40l-.691 2.126h-2.236l1.809 1.314-.691 2.126 1.809-1.314 1.809 1.314z"/><use xlink:href="#H"/><use xlink:href="#H" y="10.769"/><use xlink:href="#H" y="21.538"/><use xlink:href="#I"/><use xlink:href="#I" y="10.77"/></g></symbol><defs ><path id="C" d="M7.451 16.517l1.809-1.314H7.024l-.691-2.126-.691 2.126H3.407l1.809 1.314-.691 2.126 1.809-1.314 1.809 1.314z"/><path id="D" d="M13.784 11.132l1.809-1.314h-2.235l-.691-2.126-.691 2.126H9.74l1.809 1.314-.691 2.126 1.809-1.314 1.809 1.314z"/><path id="E" d="M26.451 11.132l1.809-1.314h-2.236l-.691-2.126-.691 2.126h-2.236l1.809 1.314-.691 2.126 1.809-1.314 1.809 1.314z"/><path id="F" d="M32.784 5.748l1.809-1.314h-2.236l-.691-2.126-.691 2.126H28.74l1.809 1.314-.691 2.126 1.809-1.314 1.809 1.314z"/><path id="G" d="M51.784 11.132l1.809-1.314h-2.236l-.691-2.126-.691 2.126H47.74l1.809 1.314-.691 2.126 1.809-1.314 1.809 1.314z"/><path id="H" d="M70.784 5.748l1.809-1.314h-2.236l-.691-2.126-.691 2.126H66.74l1.809 1.314-.691 2.126 1.809-1.314 1.809 1.314z"/><path id="I" d="M70.784 38.055l1.809-1.314h-2.235l-.691-2.126-.691 2.126H66.74l1.809 1.314-.691 2.126 1.809-1.314 1.809 1.314z"/></defs></svg>