<?xml version="1.0" standalone="no"?>
<!DOCTYPE svg PUBLIC "-//W3C//DTD SVG 20010904//EN"
 "http://www.w3.org/TR/2001/REC-SVG-20010904/DTD/svg10.dtd">
<svg version="1.0" xmlns="http://www.w3.org/2000/svg"
 width="826.000000pt" height="826.000000pt" viewBox="0 0 826.000000 826.000000"
 preserveAspectRatio="xMidYMid meet">

<g transform="translate(0.000000,826.000000) scale(0.100000,-0.100000)"
fill="#fbfbfb" stroke="none">
<path d="M4005 7864 c-22 -3 -107 -11 -188 -19 -423 -43 -853 -159 -1185 -320
-466 -226 -745 -432 -1104 -815 -258 -275 -430 -525 -613 -889 -254 -506 -374
-963 -401 -1526 -7 -159 10 -567 31 -730 54 -419 182 -830 385 -1229 195 -386
368 -626 683 -945 450 -456 985 -767 1647 -958 292 -83 325 -87 815 -87 463 1
561 8 785 59 316 71 718 226 986 380 306 174 530 343 768 575 312 305 448 486
669 890 173 316 258 532 341 865 107 425 121 539 121 960 0 356 -6 432 -51
693 -96 559 -346 1150 -695 1638 -150 211 -535 587 -816 799 -348 261 -805
469 -1273 580 -249 59 -398 77 -645 80 -121 2 -238 1 -260 -1z m246 -94 c52
-34 171 -98 264 -143 222 -108 636 -326 748 -393 269 -162 451 -344 516 -520
25 -65 27 -154 6 -213 -8 -22 -10 -41 -5 -41 5 0 43 18 85 40 65 34 85 40 138
40 118 0 279 -61 412 -155 85 -61 395 -355 570 -541 77 -82 239 -249 359 -372
l220 -222 -32 -168 c-42 -222 -56 -312 -92 -597 -49 -381 -101 -631 -184 -874
-56 -167 -152 -298 -257 -351 -45 -23 -147 -50 -190 -50 l-32 0 61 -55 c43
-39 71 -76 94 -123 33 -66 33 -68 32 -207 -1 -272 -53 -443 -264 -860 -81
-159 -196 -378 -254 -485 -102 -185 -176 -343 -176 -375 0 -21 -7 -23 -146
-45 -71 -12 -221 -39 -334 -60 -348 -66 -720 -129 -835 -141 -283 -30 -593 31
-719 142 -36 32 -51 56 -77 125 l-32 85 -25 -77 c-31 -94 -96 -170 -171 -203
-120 -51 -213 -66 -421 -65 -217 1 -315 12 -640 75 -336 64 -597 107 -730 120
-70 6 -128 16 -132 23 -4 6 -28 63 -54 126 -26 63 -88 187 -137 275 -49 88
-160 300 -247 470 -214 424 -270 597 -270 841 0 149 26 261 73 313 12 13 44
41 70 62 l49 39 -49 0 c-62 0 -150 21 -189 46 -38 23 -125 121 -169 189 -85
131 -152 302 -185 468 -20 104 -77 534 -105 802 -16 144 -51 354 -80 480 l-14
60 27 26 c15 14 92 88 171 163 146 140 277 281 387 416 153 187 577 547 709
603 167 70 249 73 405 14 52 -20 96 -34 98 -33 1 2 -2 25 -9 50 -7 28 -10 85
-7 141 11 205 112 328 463 561 133 89 216 134 585 321 184 93 387 202 450 241
78 49 125 72 146 72 21 0 62 -20 125 -60z"/>
<path d="M4055 6808 c-31 -17 -45 -39 -45 -74 0 -79 36 -107 153 -120 66 -7
78 -15 70 -45 -5 -17 -16 -19 -103 -19 -88 0 -98 -2 -103 -19 -3 -11 -3 -21
-2 -23 2 -2 63 -1 137 2 l133 5 3 71 c4 94 -3 101 -118 110 -49 3 -90 11 -90
16 0 5 5 18 10 29 9 17 22 19 105 19 93 0 95 0 95 24 0 20 -6 24 -46 30 -72 9
-177 7 -199 -6z"/>
<path d="M3750 6789 c-41 -5 -80 -11 -86 -13 -7 -3 -3 -54 11 -157 19 -142 22
-154 40 -151 42 6 45 11 45 72 l0 60 38 0 c35 0 42 -5 73 -50 29 -43 39 -50
67 -50 17 0 32 4 32 9 0 4 -16 29 -35 54 l-35 46 21 35 c21 36 21 36 2 93 -19
57 -20 58 -59 59 -21 1 -73 -2 -114 -7z m120 -78 c0 -42 -72 -64 -110 -33 -40
32 -21 52 50 52 52 0 60 -2 60 -19z"/>
<path d="M4407 6783 c-12 -40 -39 -274 -33 -288 8 -21 66 -20 66 0 0 9 7 77
16 151 8 75 14 137 12 139 -2 2 -15 6 -30 10 -20 5 -27 3 -31 -12z"/>
<path d="M4530 6766 c0 -18 38 -46 62 -46 22 0 22 9 -2 -130 -11 -63 -20 -120
-20 -126 0 -7 13 -14 29 -16 l30 -4 15 85 c9 47 18 104 22 127 l6 40 52 -4
c44 -3 54 -1 60 14 4 9 3 20 -1 24 -8 7 -216 50 -240 50 -7 0 -13 -6 -13 -14z"/>
<path d="M3435 6726 c-27 -13 -60 -35 -73 -49 -50 -54 -36 -170 28 -238 44
-46 74 -50 175 -18 58 18 66 23 63 42 -3 24 -6 24 -100 12 -65 -9 -88 2 -88
41 0 19 7 24 38 30 107 19 107 18 110 47 3 27 2 28 -30 23 -74 -13 -153 -24
-156 -22 -1 2 3 16 8 32 9 25 22 34 76 54 72 27 77 31 68 54 -9 23 -60 20
-119 -8z"/>
<path d="M4846 6665 c29 -110 32 -141 16 -152 -23 -14 -21 -106 3 -133 10 -11
21 -20 25 -20 3 0 16 24 29 54 15 36 40 71 74 102 62 58 98 104 91 115 -11 18
-55 8 -98 -22 -24 -17 -48 -29 -54 -25 -5 3 -15 30 -22 58 -13 55 -31 78 -61
78 -16 0 -16 -4 -3 -55z"/>
<path d="M3218 6663 c-16 -4 -18 -19 -18 -129 0 -153 -4 -155 -112 -47 l-77
76 -25 -17 c-14 -9 -26 -20 -26 -25 0 -4 54 -56 121 -116 l121 -108 34 16 34
17 -6 157 c-7 196 -5 187 -46 176z"/>
<path d="M2868 6479 c-10 -5 -18 -14 -18 -20 0 -5 32 -65 71 -134 58 -102 76
-125 94 -125 12 0 28 7 35 15 10 12 -2 38 -62 142 -41 70 -81 129 -89 130 -8
2 -22 -2 -31 -8z"/>
<path d="M2732 6398 c-18 -18 -16 -23 38 -100 28 -39 49 -73 47 -75 -2 -2 -52
15 -111 37 -58 22 -110 40 -114 40 -5 0 -18 -14 -31 -30 l-22 -31 77 -112 c42
-62 78 -113 79 -115 6 -7 57 12 61 23 3 7 -20 48 -50 91 -70 99 -61 103 81 38
l104 -47 25 24 24 25 -82 122 c-80 118 -101 135 -126 110z"/>
<path d="M5469 6360 c-20 -11 -48 -33 -63 -50 -23 -27 -26 -41 -26 -101 0 -82
16 -119 62 -147 48 -28 84 -34 129 -20 50 15 94 66 114 132 23 75 3 126 -69
177 -46 34 -94 37 -147 9z m135 -81 c32 -25 34 -59 5 -105 -27 -44 -56 -64
-92 -64 -89 0 -111 88 -41 162 34 35 88 38 128 7z"/>
<path d="M2437 6172 c-9 -10 -17 -24 -17 -32 0 -7 26 -43 57 -79 31 -36 63
-73 71 -83 11 -14 11 -21 -2 -46 -17 -33 -52 -62 -75 -62 -8 0 -49 37 -92 83
l-78 82 -22 -22 -22 -22 72 -80 c86 -95 129 -125 168 -116 57 13 133 105 133
161 0 25 -14 50 -59 106 -33 40 -72 85 -88 101 -29 27 -30 27 -46 9z"/>
<path d="M5758 6115 c-42 -28 -139 -153 -136 -174 2 -8 11 -19 20 -25 15 -9
25 -3 62 39 l45 50 39 -41 c58 -61 88 -79 108 -64 13 12 7 21 -47 76 -34 34
-58 67 -55 73 4 6 24 11 44 11 29 0 45 -8 79 -42 l43 -42 22 22 c12 12 20 23
17 25 -2 2 -25 20 -50 40 -42 34 -122 76 -144 77 -6 0 -27 -11 -47 -25z"/>
<path d="M3320 5712 c0 -251 -2 -242 58 -242 69 -1 168 -73 208 -151 l24 -49
-2 -749 -3 -750 -90 30 c-120 40 -188 80 -260 153 -70 71 -109 144 -130 241
-54 257 59 484 313 625 l42 24 0 237 0 238 -50 -15 c-136 -40 -293 -122 -401
-207 -203 -162 -359 -507 -359 -796 0 -178 68 -387 182 -561 53 -81 194 -224
270 -274 120 -77 275 -139 420 -166 l67 -12 8 -61 8 -62 215 0 215 0 0 1090
c0 1039 -1 1093 -19 1160 -33 121 -80 201 -170 291 -129 128 -305 213 -473
230 l-73 7 0 -231z"/>
<path d="M4790 5925 c-227 -45 -424 -204 -520 -419 -15 -33 -32 -81 -39 -106
-8 -32 -12 -350 -14 -1143 l-2 -1097 218 0 217 0 0 60 0 59 38 10 c20 6 42 11
48 11 6 0 60 16 120 36 364 120 550 305 678 674 36 103 36 103 39 294 2 170 0
201 -21 280 -26 105 -80 223 -147 326 -64 98 -232 264 -315 313 -70 40 -186
81 -262 90 l-48 7 0 -240 0 -240 48 -24 c78 -39 187 -131 226 -190 81 -122
113 -280 87 -418 -26 -132 -126 -283 -238 -357 -48 -32 -140 -65 -210 -76
l-43 -7 0 740 c0 709 1 742 19 785 40 92 115 153 224 181 51 13 52 14 52 50
-1 20 -2 122 -3 226 l-2 190 -42 -1 c-24 0 -72 -7 -108 -14z"/>
<path d="M6270 5640 c-13 -8 -13 -15 2 -57 9 -26 16 -48 15 -48 -1 -1 -48 -34
-105 -74 -85 -60 -101 -75 -91 -87 19 -23 48 -16 147 37 62 33 100 48 107 43
52 -39 65 -45 79 -37 12 7 3 28 -52 117 -37 60 -72 111 -77 113 -6 1 -17 -2
-25 -7z"/>
<path d="M1917 5568 c-56 -75 -81 -157 -66 -213 18 -64 115 -125 199 -125 46
0 90 49 125 138 15 39 26 74 24 75 -2 2 -38 22 -80 45 l-75 41 -33 -56 c-17
-31 -30 -62 -27 -70 8 -20 44 -16 58 7 13 20 34 25 62 14 26 -10 19 -38 -18
-73 -32 -31 -39 -33 -78 -28 -31 4 -49 14 -65 34 -30 36 -29 50 7 140 23 58
28 79 19 89 -17 21 -25 17 -52 -18z"/>
<path d="M6309 5301 c-87 -58 -102 -126 -51 -234 26 -56 33 -65 51 -60 34 9
34 20 2 80 -17 31 -31 62 -31 68 0 14 42 55 56 55 5 0 27 -34 47 -76 37 -74
39 -76 57 -59 18 17 18 19 -13 82 -31 63 -32 65 -13 79 32 23 40 17 80 -51 30
-52 43 -65 63 -65 29 0 27 10 -18 107 -39 81 -67 103 -134 103 -40 0 -61 -6
-96 -29z"/>
<path d="M1750 5212 c0 -37 0 -37 71 -63 39 -13 71 -29 72 -34 1 -6 -38 -13
-88 -18 -49 -4 -95 -9 -102 -12 -14 -5 -57 -84 -50 -92 11 -10 204 -71 232
-73 49 -3 75 0 75 9 0 4 -43 27 -95 51 -52 24 -94 45 -92 47 2 1 58 10 125 19
107 15 121 19 126 38 16 58 13 60 -124 114 -72 29 -135 52 -140 52 -6 0 -10
-17 -10 -38z"/>
<path d="M6501 5019 c-79 -23 -161 -99 -161 -149 0 -40 50 -170 65 -170 30 0
35 26 18 95 -25 104 -3 132 110 134 l47 1 31 -70 c22 -49 37 -70 50 -70 10 0
21 4 24 10 7 11 -38 143 -61 178 -12 19 -74 55 -86 51 -2 0 -18 -5 -37 -10z"/>
<path d="M1628 4844 c-38 -20 -60 -67 -66 -139 -4 -55 -2 -64 22 -92 38 -45
89 -65 163 -65 71 0 96 14 119 69 19 44 18 137 -2 174 -30 60 -168 90 -236 53z
m176 -78 c42 -18 52 -45 31 -86 -23 -44 -67 -61 -129 -49 -98 18 -121 60 -67
118 25 27 36 31 80 31 29 0 67 -6 85 -14z"/>
<path d="M6548 4681 c-70 -15 -130 -30 -134 -34 -4 -3 -1 -20 6 -37 14 -33 3
-32 125 -16 12 1 19 -57 11 -89 -4 -16 -19 -27 -48 -37 -43 -13 -55 -31 -39
-57 8 -12 29 -11 140 9 72 13 136 27 142 31 7 4 9 19 4 38 l-7 31 -69 -6 -70
-7 3 54 3 54 42 10 c54 13 67 27 59 59 -8 31 -7 31 -168 -3z"/>
<path d="M1580 4471 c-56 -30 -74 -71 -78 -182 l-4 -96 58 -12 c40 -8 92 -9
158 -4 l100 8 9 35 c13 51 3 162 -18 198 -40 67 -151 93 -225 53z m129 -71
c45 -12 51 -23 51 -90 l0 -55 -100 3 c-65 2 -100 7 -100 15 0 34 34 127 49
130 29 8 66 7 100 -3z"/>
<path d="M6480 4285 l0 -34 107 -3 108 -3 -75 -44 c-155 -91 -146 -84 -142
-130 l4 -41 149 0 149 0 0 40 0 39 -92 3 -93 3 92 60 93 60 0 43 0 42 -150 0
-150 0 0 -35z"/>
<path d="M1620 4035 c0 -67 2 -75 19 -75 13 0 23 11 31 35 10 29 16 35 40 35
41 0 56 -63 25 -106 -14 -21 -15 -21 -97 -5 l-83 17 -5 79 c-5 77 -6 80 -31
83 -26 3 -27 1 -31 -60 -8 -113 17 -186 73 -215 40 -21 130 -16 179 10 67 35
82 74 74 186 l-7 91 -93 0 -94 0 0 -75z"/>
<path d="M6495 3937 c-53 -53 -60 -173 -13 -233 59 -74 203 -70 261 8 29 38
29 157 1 194 -32 44 -81 64 -152 64 -59 0 -67 -3 -97 -33z m156 -66 c30 -30
39 -46 39 -72 0 -56 -10 -63 -77 -55 -70 8 -127 34 -131 60 -9 43 55 106 107
106 14 0 39 -16 62 -39z"/>
<path d="M1657 3735 c-65 -12 -121 -25 -124 -29 -4 -4 1 -14 10 -23 12 -12 41
-19 94 -22 l78 -6 -65 -49 c-83 -62 -100 -82 -100 -116 0 -71 29 -75 208 -34
87 20 112 30 112 42 -1 40 -13 44 -116 37 l-99 -6 40 37 c22 21 62 57 88 82
45 41 48 47 42 78 -7 41 -6 41 -168 9z"/>
<path d="M6462 3585 c-23 -10 -38 -27 -51 -57 -24 -54 -37 -128 -23 -128 6 0
17 -3 25 -6 11 -4 21 11 37 60 12 36 25 66 28 66 4 0 49 -9 100 -20 98 -20
134 -16 146 15 11 29 7 32 -66 53 -104 29 -157 34 -196 17z"/>
<path d="M1795 3379 c-38 -33 -87 -70 -107 -82 -45 -26 -53 -55 -35 -117 l13
-45 162 -3 c89 -1 162 0 162 3 0 23 -35 66 -58 71 -38 10 -50 21 -62 62 -7 29
-6 44 10 79 14 33 17 50 10 68 -5 14 -13 25 -17 24 -5 0 -39 -27 -78 -60z m25
-150 c0 -12 -38 -21 -61 -14 -25 8 -20 26 12 42 20 11 26 10 37 -4 6 -9 12
-20 12 -24z"/>
<path d="M6408 3340 c-20 -4 -44 -12 -52 -19 -26 -22 -56 -100 -56 -147 0 -42
4 -51 41 -85 75 -69 162 -86 226 -44 31 21 73 109 73 155 0 94 -113 163 -232
140z m121 -79 c23 -12 43 -32 51 -51 11 -27 10 -34 -14 -70 -24 -36 -31 -40
-67 -40 -61 0 -108 27 -129 73 -10 21 -15 48 -13 58 13 50 103 65 172 30z"/>
<path d="M1860 3037 c-36 -18 -82 -44 -102 -58 -37 -25 -37 -25 -20 -52 l18
-26 44 30 c112 75 178 89 218 46 49 -52 9 -111 -115 -169 -46 -22 -83 -43 -83
-47 0 -20 39 -43 62 -36 36 11 150 73 182 99 58 48 41 169 -30 225 -40 31 -96
27 -174 -12z"/>
<path d="M6260 3009 c-41 -17 -81 -61 -111 -124 -16 -33 -29 -65 -29 -72 0
-11 148 -99 154 -92 8 12 66 120 66 124 0 15 -51 2 -64 -16 -20 -29 -63 -19
-72 16 -9 36 19 72 65 85 47 12 83 1 124 -38 39 -37 36 -75 -14 -152 -41 -64
-44 -90 -11 -90 35 0 112 137 112 200 0 73 -53 139 -128 160 -44 12 -59 12
-92 -1z"/>
<path d="M2888 2916 c53 -61 51 -122 -8 -196 l-32 -40 565 0 565 0 35 39 c57
63 59 128 7 201 l-21 30 -571 0 -570 0 30 -34z"/>
<path d="M4247 2924 c-57 -57 -56 -141 4 -209 l31 -35 565 0 565 0 -36 42
c-62 73 -64 117 -5 191 l30 37 -564 0 -564 0 -26 -26z"/>
<path d="M2081 2741 l-63 -58 33 -51 c20 -30 40 -51 49 -49 18 3 26 45 11 60
-6 6 -11 19 -11 29 0 31 54 23 84 -13 36 -42 33 -75 -9 -114 -69 -66 -113 -56
-188 40 -41 54 -60 65 -72 45 -8 -13 43 -103 90 -157 34 -40 40 -43 89 -43 44
0 61 6 100 34 91 65 100 110 44 228 -36 76 -61 108 -81 108 -7 -1 -41 -27 -76
-59z"/>
<path d="M6012 2666 c-10 -22 -5 -30 49 -83 45 -45 59 -67 59 -89 0 -36 40
-108 62 -112 10 -2 19 8 26 26 8 23 6 38 -9 72 -11 24 -17 45 -15 47 2 3 33 7
68 10 74 7 88 15 88 55 l0 30 -98 -7 -97 -7 -50 34 c-28 19 -55 37 -61 41 -6
3 -16 -4 -22 -17z"/>
<path d="M2690 2351 l0 -131 1428 2 1427 3 8 119 c4 65 6 120 5 121 -2 1 -648
6 -1435 10 l-1433 7 0 -131z"/>
<path d="M6076 2193 c-3 -3 -6 -20 -6 -37 0 -37 -42 -131 -73 -164 -12 -13
-39 -33 -60 -44 -36 -18 -38 -21 -23 -37 18 -20 20 -31 6 -31 -5 0 -17 15 -26
33 -23 45 -54 77 -76 77 -17 0 -13 -11 26 -84 65 -118 61 -154 -10 -100 -19
15 -37 25 -39 22 -10 -10 45 -118 60 -118 8 0 15 4 15 9 0 5 15 26 34 45 22
24 42 36 61 36 24 0 26 -3 21 -25 -7 -28 5 -33 24 -10 18 22 40 18 40 -7 0
-20 4 -18 41 17 39 39 40 42 34 88 -5 44 -4 49 27 77 18 17 41 30 52 30 16 0
18 -6 14 -52 l-5 -53 29 60 c16 35 27 73 26 90 -3 27 -6 30 -33 28 -18 -1 -36
-11 -45 -24 -41 -59 -68 -79 -107 -79 -67 0 -68 8 -3 104 33 49 60 94 60 101
0 20 -52 60 -64 48z m-66 -313 c0 -5 -11 -10 -25 -10 -14 0 -25 5 -25 10 0 6
11 10 25 10 14 0 25 -4 25 -10z m70 -39 c0 -11 -4 -22 -9 -25 -11 -7 -23 22
-15 35 9 16 24 10 24 -10z"/>
<path d="M2470 2133 c18 -48 18 -48 69 -51 63 -4 68 13 17 64 -26 26 -43 34
-69 34 l-35 0 18 -47z"/>
<path d="M3252 2064 l5 -95 -100 -50 c-73 -37 -96 -53 -86 -60 26 -16 75 -10
95 12 25 27 72 52 85 43 6 -4 4 -15 -6 -31 -12 -17 -13 -28 -6 -37 8 -9 -9
-32 -64 -86 -76 -75 -86 -90 -61 -90 7 0 30 25 50 55 29 43 42 55 63 55 l26 0
-6 -77 c-4 -43 -10 -124 -13 -181 -4 -56 -12 -106 -18 -111 -6 -5 -22 -11 -36
-13 -20 -2 -14 -8 39 -36 l64 -33 -7 108 c-6 84 -4 125 8 177 19 82 19 81 2
67 -12 -10 -15 -6 -21 18 -4 18 -1 39 6 53 7 13 12 36 10 51 -3 32 19 61 61
83 39 20 43 18 23 -13 -54 -83 -51 -77 -34 -67 9 5 33 24 54 42 31 28 35 35
24 49 -10 11 -25 14 -56 10 -23 -2 -44 -2 -47 0 -10 10 40 65 69 78 29 12 28
12 -25 11 -50 -1 -55 1 -52 19 15 102 15 102 -9 124 -12 11 -27 21 -32 21 -6
0 -8 -39 -5 -96z"/>
<path d="M4721 2053 l1 -78 13 40 c19 57 19 115 0 115 -12 0 -15 -15 -14 -77z"/>
<path d="M2463 2018 c-127 -43 -145 -58 -97 -80 23 -11 33 -8 87 21 34 18 72
32 83 30 19 -4 12 -17 -67 -122 -48 -65 -105 -138 -126 -162 -51 -59 -251
-392 -259 -431 -5 -27 -3 -33 16 -39 12 -4 23 -5 24 -3 2 1 49 89 106 193 57
105 104 191 104 192 1 1 21 -3 45 -9 33 -8 48 -8 63 1 26 16 30 11 18 -30 -14
-47 -12 -91 3 -128 13 -31 13 -31 32 -11 15 17 16 20 3 20 -18 0 -28 20 -28
55 0 43 10 55 46 55 37 0 43 -10 19 -30 -12 -10 -13 -16 -4 -26 18 -21 23 -18
65 41 43 59 101 94 88 52 -3 -12 -13 -34 -20 -49 -8 -16 -19 -40 -25 -55 -10
-26 -8 -25 31 12 38 37 80 107 80 133 0 8 -20 12 -60 12 -48 0 -61 4 -70 19
-5 11 -10 24 -10 29 0 4 44 28 98 53 71 32 91 45 74 47 -13 2 -36 -1 -50 -6
-15 -6 -40 -13 -56 -17 -36 -8 -32 4 25 81 38 50 41 57 27 71 -19 18 -38 10
-38 -16 0 -24 -15 -35 -69 -50 -31 -9 -47 -9 -54 -2 -18 18 -24 13 -31 -23 -8
-42 -56 -86 -94 -86 l-25 0 20 23 c11 12 64 73 118 136 91 106 97 115 80 128
-26 18 -35 17 -172 -29z m136 -245 c-54 -58 -72 -73 -104 -87 -31 -14 -135
-32 -135 -23 0 3 28 26 62 51 43 32 71 46 93 46 21 0 40 9 55 25 13 14 33 25
44 25 17 0 16 -5 -15 -37z m-21 -105 c28 -28 -4 -68 -53 -68 -20 0 -19 6 6 46
23 37 29 40 47 22z"/>
<path d="M4547 2033 c-2 -4 -10 -34 -17 -65 -11 -48 -17 -58 -34 -58 -31 0
-50 -16 -43 -34 4 -10 18 -16 40 -16 32 0 67 -24 67 -46 0 -5 -25 -24 -56 -43
-41 -25 -76 -36 -132 -44 -43 -5 -79 -12 -81 -14 -8 -6 43 -53 58 -53 9 0 33
11 53 25 21 14 51 28 67 31 24 5 30 2 37 -20 l9 -26 48 32 c33 21 51 28 58 21
17 -17 -7 -51 -62 -84 -41 -26 -49 -36 -49 -60 0 -17 -11 -47 -25 -67 -22 -32
-23 -38 -10 -51 12 -12 17 -12 27 -3 19 19 38 14 38 -10 0 -34 -7 -40 -107
-108 -51 -34 -93 -65 -93 -69 0 -3 4 -12 9 -19 6 -10 33 -3 124 34 l117 48 0
88 c0 71 3 90 15 95 26 9 48 65 51 124 1 31 9 69 17 85 8 16 12 35 10 42 -7
20 -47 14 -83 -13 -19 -14 -40 -25 -47 -25 -27 0 -11 21 39 52 l53 33 -28 9
c-36 13 -35 39 3 83 17 18 30 40 30 48 0 20 -28 7 -35 -16 -11 -34 -30 -15
-32 31 -1 40 -25 82 -36 63z"/>
<path d="M5320 2036 c0 -3 11 -47 25 -98 14 -51 25 -119 25 -151 0 -91 -25
-122 -113 -142 -52 -11 -317 -118 -312 -125 9 -14 103 -32 127 -25 13 4 40 23
60 41 52 47 94 66 136 62 30 -2 38 -7 40 -26 8 -52 -114 -193 -178 -207 -29
-6 -42 -25 -17 -25 25 0 123 52 155 83 39 37 82 116 82 149 0 38 27 65 88 88
81 30 166 80 154 92 -11 11 -57 -6 -98 -37 -31 -24 -104 -44 -104 -29 0 5 9
57 20 116 20 113 17 153 -17 190 -18 20 -73 53 -73 44z"/>
<path d="M4700 1876 c-5 -15 -10 -29 -10 -32 0 -2 30 -4 68 -4 l67 1 -24 19
c-13 11 -33 20 -45 20 -12 0 -27 5 -34 12 -8 8 -14 5 -22 -16z"/>
<path d="M3835 1821 c-3 -6 -1 -20 5 -32 11 -20 16 -20 122 -13 l110 7 -7 -24
c-4 -13 -57 -76 -117 -139 -120 -129 -157 -150 -258 -150 -30 0 -62 -5 -70
-10 -13 -9 -11 -14 13 -35 44 -39 87 -33 207 26 57 27 130 56 163 64 82 19 96
35 30 35 -29 0 -54 4 -57 8 -3 5 29 64 71 131 41 67 74 123 72 125 -11 10
-278 16 -284 7z"/>
<path d="M6118 1746 c-27 -25 -86 -64 -133 -88 -46 -23 -81 -46 -77 -50 4 -4
37 1 73 9 70 17 105 13 95 -12 -8 -23 1 -19 59 28 59 46 65 63 36 98 -14 17
-17 29 -10 41 13 25 10 23 -43 -26z"/>
<path d="M6035 1541 c-8 -16 -35 -46 -59 -66 -45 -37 -166 -94 -199 -95 -12 0
-17 -6 -15 -17 6 -29 59 -20 125 21 32 19 73 39 91 42 l32 7 0 -80 0 -80 -60
-18 c-33 -10 -59 -23 -57 -29 3 -9 125 -41 132 -34 2 1 6 62 10 133 7 136 17
175 45 175 13 0 16 -6 12 -27 -5 -27 -5 -27 19 -12 13 9 32 28 44 43 20 28 20
28 0 42 -19 14 -35 13 -89 -3 -15 -4 -18 -1 -13 11 10 27 -1 18 -18 -13z"/>
<path d="M3375 1538 c8 -13 15 -30 15 -40 0 -21 23 -24 39 -5 8 11 5 19 -12
34 -12 11 -30 23 -40 26 -17 6 -17 5 -2 -15z"/>
<path d="M2529 1473 c-13 -16 -12 -17 4 -4 9 7 17 15 17 17 0 8 -8 3 -21 -13z"/>
<path d="M2670 1435 c0 -9 7 -32 15 -51 17 -42 48 -44 53 -3 2 19 -5 33 -24
48 -32 25 -44 27 -44 6z"/>
<path d="M4684 1438 c-9 -14 31 -48 57 -48 25 0 35 26 19 45 -15 18 -66 20
-76 3z"/>
<path d="M5556 1429 c-16 -80 -16 -88 5 -100 51 -27 64 20 24 85 -23 38 -24
38 -29 15z"/>
<path d="M3040 1405 c-19 -20 -51 -40 -72 -45 -45 -13 -52 -21 -34 -45 21 -29
61 -11 106 46 33 42 50 79 37 79 -2 0 -18 -16 -37 -35z"/>
<path d="M2380 1342 c-23 -20 -31 -34 -27 -45 9 -25 33 -21 83 13 44 31 61 59
27 45 -45 -18 -57 -19 -50 -2 8 22 7 22 -33 -11z"/>
</g>
</svg>
