<svg xmlns="http://www.w3.org/2000/svg" xmlns:xlink="http://www.w3.org/1999/xlink" viewBox="0 0 151 102" fill="#fff" fill-rule="evenodd" stroke="#000" stroke-linecap="round" stroke-linejoin="round"><style><![CDATA[.B{stroke:none}.C{fill:#ffde00}.D{font-family:Roboto Condensed}]]></style><use xlink:href="#A" x=".5" y=".5"/><symbol id="A" overflow="visible"><g class="B"><path d="M0 0h150v100H0z" fill="#de2910"/><path d="M19.551 26.771l-3.368 10.365L25 30.73l8.817 6.406-3.368-10.365 8.817-6.406H28.368L25 10l-3.368 10.365H10.734z" class="C"/></g><path d="M48.098 9.833l-2.385 2.74 3.54-.815 1.869 3.115.319-3.619 3.54-.815-3.343-1.421.319-3.619-2.385 2.74-3.343-1.421z" class="B C"/><path d="M58.311 19.107l-3.261 1.6 3.579.623.514 3.596 1.698-3.211 3.579.623-2.529-2.607 1.698-3.211-3.262 1.6-2.529-2.607z" class="B C"/><path d="M58.822 33.496l-3.63.13 3.014 2.029-.998 3.493 2.861-2.239 3.014 2.029-1.246-3.413 2.861-2.239-3.63.13-1.246-3.413z" class="B C"/><path d="M48.092 44.912l-2.269 2.837 3.503-.961 1.997 3.035.168-3.629 3.503-.961-3.399-1.282.169-3.629-2.269 2.837-3.399-1.282z" class="B C"/></symbol></svg>